<svg width="65" height="62" viewBox="0 0 65 62" fill="none" xmlns="http://www.w3.org/2000/svg">
<g id="Frame 5">
<path id="Vector" d="M59.52 14.88H47.12C47.12 10.9336 45.5523 7.14879 42.7617 4.35825C39.9712 1.56771 36.1864 0 32.24 0C28.2936 0 24.5088 1.56771 21.7183 4.35825C18.9277 7.14879 17.36 10.9336 17.36 14.88H4.96C3.64453 14.88 2.38293 15.4026 1.45275 16.3328C0.52257 17.2629 0 18.5245 0 19.84V57.04C0 58.3555 0.52257 59.6171 1.45275 60.5472C2.38293 61.4774 3.64453 62 4.96 62H59.52C60.8355 62 62.0971 61.4774 63.0272 60.5472C63.9574 59.6171 64.48 58.3555 64.48 57.04V19.84C64.48 18.5245 63.9574 17.2629 63.0272 16.3328C62.0971 15.4026 60.8355 14.88 59.52 14.88ZM32.24 4.96C34.8709 4.96 37.3941 6.00514 39.2545 7.8655C41.1149 9.72586 42.16 12.2491 42.16 14.88H22.32C22.32 12.2491 23.3651 9.72586 25.2255 7.8655C27.0859 6.00514 29.6091 4.96 32.24 4.96ZM59.52 57.04H4.96V19.84H17.36V24.8C17.36 25.4577 17.6213 26.0885 18.0864 26.5536C18.5515 27.0187 19.1823 27.28 19.84 27.28C20.4977 27.28 21.1285 27.0187 21.5936 26.5536C22.0587 26.0885 22.32 25.4577 22.32 24.8V19.84H42.16V24.8C42.16 25.4577 42.4213 26.0885 42.8864 26.5536C43.3515 27.0187 43.9823 27.28 44.64 27.28C45.2977 27.28 45.9285 27.0187 46.3936 26.5536C46.8587 26.0885 47.12 25.4577 47.12 24.8V19.84H59.52V57.04Z" fill="white"/>
</g>
</svg>
