<svg width="73" height="75" viewBox="0 0 73 75" fill="none" xmlns="http://www.w3.org/2000/svg">
<g id="Frame 8">
<g id="Group">
<path id="Vector" d="M60.4211 32.2105L69.2368 48.0789L60.4211 49.8421V60.4211H55.1316L44.5526 58.6579L42.7895 71H16.3421L12.8158 52.6967C7.38526 47.5553 4 40.2787 4 32.2105C4 16.6295 16.6295 4 32.2105 4C47.7916 4 60.4211 16.6295 60.4211 32.2105Z" stroke="black" stroke-opacity="0.29" stroke-width="7.05263" stroke-linecap="round" stroke-linejoin="round"/>
<path id="Vector_2" d="M23.3947 28.6842C23.3947 26.9406 23.9118 25.2362 24.8804 23.7864C25.8491 22.3367 27.226 21.2067 28.8369 20.5395C30.4477 19.8722 32.2203 19.6976 33.9304 20.0378C35.6405 20.378 37.2113 21.2176 38.4442 22.4505C39.6771 23.6834 40.5168 25.2542 40.8569 26.9643C41.1971 28.6744 41.0225 30.447 40.3552 32.0579C39.688 33.6687 38.5581 35.0456 37.1083 36.0143C35.6586 36.983 33.9541 37.5 32.2105 37.5V42.7895M32.2105 53.3684V55.1316" stroke="black" stroke-opacity="0.29" stroke-width="7.05263" stroke-linecap="round" stroke-linejoin="round"/>
</g>
</g>
</svg>
