<svg width="63" height="55" viewBox="0 0 63 55" fill="none" xmlns="http://www.w3.org/2000/svg">
<g id="Frame 6">
<path id="Vector" d="M31.2527 0C22.967 0.00992497 15.0235 3.3058 9.16467 9.16467C3.3058 15.0235 0.00992499 22.967 1.20328e-08 31.2527V48.7542C-7.16762e-05 49.9098 0.320184 51.0427 0.925193 52.0272C1.5302 53.0117 2.39628 53.8093 3.42723 54.3312C4.45817 54.8531 5.61363 55.0791 6.76525 54.9839C7.91687 54.8888 9.01957 54.4763 9.95087 53.7922C13.895 50.9419 20.7924 47.5041 31.2527 47.5041C41.713 47.5041 48.6105 50.9232 52.5546 53.7922C53.4916 54.4812 54.6024 54.8951 55.7618 54.9873C56.9213 55.0795 58.0835 54.8464 59.1176 54.3141C60.1416 53.7917 61.0005 52.9954 61.5986 52.0137C62.1967 51.0321 62.5107 49.9037 62.5054 48.7542V31.2527C62.4955 22.967 59.1996 15.0235 53.3408 9.16467C47.4819 3.3058 39.5384 0.00992497 31.2527 0ZM60.0052 31.2527V36.325C55.3593 33.1573 50.2189 30.7841 44.7945 29.3025C43.8751 19.5738 40.1694 10.3167 34.1217 2.64085C41.2123 3.36036 47.784 6.68432 52.5653 11.9696C57.3466 17.2548 59.9975 24.1257 60.0052 31.2527ZM42.2224 28.6712C34.9923 27.1128 27.5131 27.1128 20.283 28.6712C21.7644 15.292 28.7525 6.0349 31.2527 3.12527C33.7529 6.03802 40.741 15.292 42.2224 28.6744V28.6712ZM28.3837 2.64398C22.336 10.3198 18.6303 19.577 17.7109 29.3057C12.2865 30.7873 7.14618 33.1604 2.50022 36.3282V31.2527C2.50868 24.1262 5.15997 17.2561 9.94116 11.9715C14.7224 6.68694 21.2936 3.36343 28.3837 2.64398ZM57.9675 52.0889C57.3479 52.4133 56.6492 52.5561 55.952 52.5008C55.2548 52.4455 54.5873 52.1944 54.0266 51.7764C49.7825 48.6855 42.3849 45.0039 31.2527 45.0039C20.1205 45.0039 12.723 48.6824 8.47886 51.7701C7.9181 52.1881 7.25066 52.4392 6.55343 52.4945C5.8562 52.5498 5.15754 52.407 4.53789 52.0827C3.91975 51.7755 3.40071 51.3002 3.04031 50.7115C2.6799 50.1228 2.49271 49.4445 2.50022 48.7542V39.3784C10.8477 33.2827 20.9165 29.9976 31.2527 29.9976C41.589 29.9976 51.6578 33.2827 60.0052 39.3784V48.7542C60.0139 49.4455 59.8273 50.1252 59.4668 50.7151C59.1063 51.3051 58.5866 51.7812 57.9675 52.0889Z" fill="white"/>
</g>
</svg>
