<svg width="67" height="67" viewBox="0 0 67 67" fill="none" xmlns="http://www.w3.org/2000/svg">
<g id="Frame 10">
<path id="Vector" d="M33.5 60.3C40.6078 60.3 47.4245 57.4764 52.4505 52.4505C57.4764 47.4245 60.3 40.6078 60.3 33.5C60.3 26.3922 57.4764 19.5755 52.4505 14.5495C47.4245 9.52356 40.6078 6.7 33.5 6.7C26.3922 6.7 19.5755 9.52356 14.5495 14.5495C9.52356 19.5755 6.7 26.3922 6.7 33.5C6.7 40.6078 9.52356 47.4245 14.5495 52.4505C19.5755 57.4764 26.3922 60.3 33.5 60.3ZM33.5 0C37.8993 0 42.2555 0.866503 46.3199 2.55004C50.3843 4.23357 54.0773 6.70116 57.1881 9.81192C60.2988 12.9227 62.7664 16.6157 64.45 20.6801C66.1335 24.7445 67 29.1007 67 33.5C67 42.3848 63.4705 50.9056 57.1881 57.1881C50.9056 63.4705 42.3848 67 33.5 67C14.9745 67 0 51.925 0 33.5C0 24.6152 3.52945 16.0944 9.81192 9.81192C16.0944 3.52945 24.6152 0 33.5 0ZM35.175 16.75V34.3375L50.25 43.282L47.7375 47.4025L30.15 36.85V16.75H35.175Z" fill="black" fill-opacity="0.38"/>
</g>
</svg>
