<svg width="55" height="72" viewBox="0 0 55 72" fill="none" xmlns="http://www.w3.org/2000/svg">
<g id="Frame 4">
<path id="Vector" d="M38.0448 55.1255L38.5989 66.363L27.2321 58.4638L15.8016 66.3705L16.3562 55.1255H11.5556L10.7282 71.907H16.226L27.2258 64.2984L38.1747 71.907H43.6728L42.8454 55.1255H38.0448ZM51.0856 20.8003L50.7569 13.6001L44.6863 9.71532L40.8008 3.64414L33.6004 3.31451L27.2005 0L20.8006 3.31526L13.6003 3.64489L9.71472 9.71532L3.64415 13.6001L3.31541 20.8003L0 27.2004L3.31541 33.6006L3.64504 40.8006L9.71472 44.6854L13.5997 50.7567L20.8 51.0856L27.2005 54.4009L33.6004 51.0856L40.8008 50.7567L44.6857 44.6854L50.7567 40.8012L51.0856 33.6012L54.401 27.201L51.0856 20.8003ZM46.3439 32.33L46.0798 38.1007L41.2138 41.2143L38.1003 46.0802L32.3294 46.3439L27.2005 49.0009L22.071 46.3439L16.3001 46.0802L13.1866 41.2143L8.32125 38.1007L8.05769 32.33L5.39947 27.2004L8.05709 22.0718L8.32125 16.3001L13.1866 13.1866L16.3001 8.3208L22.071 8.05709L27.2005 5.39991L32.33 8.05694L38.1009 8.32065L41.2144 13.1864L46.0798 16.3001L46.3433 22.071L49.0015 27.2004L46.3439 32.33Z" fill="white"/>
</g>
</svg>
