<svg width="79" height="67" viewBox="0 0 79 67" fill="none" xmlns="http://www.w3.org/2000/svg">
<g id="Frame 2">
<path id="Vector" d="M78.4086 32.6916L57.8971 1.94446C57.4974 1.34538 56.9558 0.854374 56.3205 0.515135C55.6852 0.175895 54.976 -0.00106269 54.2558 4.80119e-06H24.3971C23.6769 -0.00106269 22.9676 0.175895 22.3323 0.515135C21.6971 0.854374 21.1555 1.34538 20.7558 1.94446L0.244313 32.6916C0.128962 32.8648 0.0520521 33.0607 0.0187624 33.2661C-0.0145272 33.4715 -0.00342452 33.6816 0.0513231 33.8824L8.2042 63.7811C8.45664 64.7059 9.00618 65.522 9.76815 66.1037C10.5301 66.6853 11.4622 67.0003 12.4208 67H21.8482C23.0071 67 24.1185 66.5396 24.9379 65.7202C25.7574 64.9007 26.2177 63.7893 26.2177 62.6305V55.3478H52.4351V62.6305C52.4351 63.7893 52.8955 64.9007 53.715 65.7202C54.5344 66.5396 55.6458 67 56.8047 67H66.232C67.1907 67.0003 68.1228 66.6853 68.8847 66.1037C69.6467 65.522 70.1962 64.7059 70.4487 63.7811L78.6016 33.8824C78.6563 33.6816 78.6674 33.4715 78.6341 33.2661C78.6008 33.0607 78.5239 32.8648 78.4086 32.6916ZM21.8482 52.4348C21.4619 52.4348 21.0914 52.2813 20.8183 52.0082C20.5451 51.735 20.3917 51.3646 20.3917 50.9783V9.79147L32.0438 16.4514V36.4131C32.0438 36.7994 32.1973 37.1698 32.4704 37.443C32.7436 37.7161 33.1141 37.8696 33.5004 37.8696C33.8866 37.8696 34.2571 37.7161 34.5303 37.443C34.8034 37.1698 34.9569 36.7994 34.9569 36.4131V18.1155L38.5982 20.1983C38.8196 20.3262 39.0708 20.3935 39.3264 20.3935C39.5821 20.3935 39.8333 20.3262 40.0547 20.1983L43.696 18.1155V33.5C43.696 33.8863 43.8495 34.2568 44.1226 34.5299C44.3958 34.8031 44.7662 34.9565 45.1525 34.9565C45.5388 34.9565 45.9093 34.8031 46.1824 34.5299C46.4556 34.2568 46.609 33.8863 46.609 33.5V16.4514L58.2612 9.79147V50.9783C58.2612 51.3646 58.1078 51.735 57.8346 52.0082C57.5615 52.2813 57.191 52.4348 56.8047 52.4348H21.8482ZM23.1663 3.5612C23.3011 3.35909 23.4844 3.19391 23.6993 3.08071C23.9143 2.9675 24.1542 2.90987 24.3971 2.91305H54.2922C54.5321 2.91289 54.7682 2.97197 54.9798 3.08504C55.1913 3.19812 55.3716 3.36168 55.5048 3.5612L57.6568 6.79104L39.3264 17.2561L21.0143 6.79104L23.1663 3.5612ZM23.3047 62.6305C23.3047 63.0167 23.1512 63.3872 22.8781 63.6604C22.6049 63.9335 22.2345 64.087 21.8482 64.087H12.4208C12.1011 64.087 11.7903 63.9818 11.5363 63.7877C11.2823 63.5936 11.0992 63.3213 11.0153 63.0128L3.03719 33.7549L17.4786 12.0928V50.9783C17.4786 52.1372 17.939 53.2486 18.7584 54.068C19.5779 54.8875 20.6893 55.3478 21.8482 55.3478H23.3047V62.6305ZM67.6376 63.0128C67.5537 63.3213 67.3706 63.5936 67.1166 63.7877C66.8626 63.9818 66.5517 64.087 66.232 64.087H56.8047C56.4184 64.087 56.0479 63.9335 55.7748 63.6604C55.5016 63.3872 55.3482 63.0167 55.3482 62.6305V55.3478H56.8047C57.9636 55.3478 59.075 54.8875 59.8945 54.068C60.7139 53.2486 61.1743 52.1372 61.1743 50.9783V12.0928L75.6157 33.7549L67.6376 63.0128Z" fill="white"/>
</g>
</svg>
