<svg width="68" height="67" viewBox="0 0 68 67" fill="none" xmlns="http://www.w3.org/2000/svg">
<g id="Frame 9">
<path id="Vector" d="M66.6402 2.4747C66.6402 1.79904 65.9645 1.46121 65.2888 1.12338C52.4514 -2.25491 38.6004 2.13687 30.1546 12.2717L25.7629 17.3392L16.6415 14.9744C12.9254 13.623 9.20926 15.3122 7.52011 18.6905L0.425708 31.1901C0.425708 31.1901 0.425708 31.528 0.0878793 31.528C-0.24995 32.5415 0.425708 33.2171 1.43919 33.5549L12.9254 35.9198C11.9119 38.9602 10.8984 42.0007 10.5606 45.0411C10.5606 45.7168 10.5606 46.0546 10.8984 46.3924L21.0333 56.1895C21.3711 56.5273 21.7089 56.5273 22.3846 56.5273C25.425 56.1895 28.8033 55.5138 31.8438 54.5003L34.2086 65.6487C34.2086 66.3243 35.2221 67 35.8977 67C36.2356 67 36.5734 67 36.5734 66.6622L49.0731 59.5678C52.1135 57.8786 53.4648 54.1625 52.7892 50.7842L50.4244 40.9872L55.154 36.5954C65.6267 28.8253 70.0184 15.3122 66.6402 2.4747ZM4.47965 30.8523L10.2227 20.3796C11.2362 18.3526 13.2632 17.677 15.2902 18.3526L23.0602 20.3796L19.6819 24.4336C17.655 27.1362 15.628 29.8388 14.2767 32.8793L4.47965 30.8523ZM47.7217 57.5408L37.2491 63.6217L35.2221 53.8247C38.2625 52.4734 40.9652 50.4464 43.6678 48.4194L48.0596 44.3655L50.0865 52.1355C50.0865 54.1625 49.4109 56.5273 47.7217 57.5408ZM53.127 34.9063L41.303 45.7168C36.2356 50.1086 29.8168 52.8112 23.0602 53.4868L14.2767 44.7033C15.2902 37.9467 17.9928 31.528 22.3846 26.4605L27.7898 20.3796L28.1277 20.0418L32.8573 14.6365C40.2895 5.85298 52.4514 1.79904 63.5997 4.16384C65.9645 15.65 62.2484 27.474 53.127 34.9063ZM49.0731 12.2717C45.3569 12.2717 42.6543 15.3122 42.6543 18.6905C42.6543 22.0688 45.6948 25.1092 49.0731 25.1092C52.7892 25.1092 55.4918 22.0688 55.4918 18.6905C55.4918 15.3122 52.7892 12.2717 49.0731 12.2717ZM49.0731 22.0688C47.3839 22.0688 46.0326 20.7175 46.0326 19.0283C46.0326 17.3392 47.3839 15.9878 49.0731 15.9878C50.7622 15.9878 52.1135 17.3392 52.1135 19.0283C52.1135 20.7175 50.7622 22.0688 49.0731 22.0688Z" fill="black" fill-opacity="0.38"/>
</g>
</svg>
