<svg width="53" height="53" viewBox="0 0 53 53" fill="none" xmlns="http://www.w3.org/2000/svg">
<g id="Frame 1">
<path id="Vector" d="M51.0344 24.3669C49.8432 23.226 48.2805 22.553 46.6331 22.4715C44.9857 22.3899 43.3641 22.9053 42.0661 23.923L36.7596 7.86048C36.3167 6.50244 35.4902 5.30158 34.38 4.4028C33.2697 3.50403 31.9231 2.94575 30.5026 2.79532L4.93546 0.0243828C4.2728 -0.0451213 3.60298 0.0344218 2.97502 0.257191C2.34706 0.47996 1.77686 0.840318 1.30614 1.31189C0.835427 1.78347 0.476107 2.35432 0.25448 2.98268C0.0328535 3.61104 -0.0454712 4.28101 0.0252381 4.94355L2.79618 30.5047C2.94479 31.9258 3.5024 33.2733 4.40143 34.3839C5.30047 35.4945 6.50232 36.3204 7.86134 36.7617L23.9209 42.0354C22.9378 43.2377 22.4009 44.7431 22.4013 46.2961C22.4068 48.0724 23.1149 49.7744 24.3709 51.0304C25.627 52.2864 27.3289 52.9945 29.1052 53C30.8832 52.9942 32.587 52.2864 33.8456 51.0305L51.0374 33.8418C51.6598 33.2195 52.1535 32.4807 52.4904 31.6676C52.8273 30.8545 53.0007 29.983 53.0007 29.1029C53.0007 28.2227 52.8273 27.3512 52.4904 26.5381C52.1535 25.725 51.6598 24.9862 51.0374 24.364L51.0344 24.3669ZM8.78499 33.9312C7.972 33.6623 7.25338 33.1655 6.7146 32.5C6.17583 31.8344 5.83959 31.0281 5.74589 30.177L3.06433 5.17893L15.0122 17.1267C14.7989 17.7509 14.7643 18.4223 14.9122 19.0651C15.0601 19.7079 15.3847 20.2966 15.8494 20.7647C16.1698 21.0989 16.5537 21.3657 16.9786 21.5496C17.4035 21.7334 17.8608 21.8305 18.3237 21.8352C18.7867 21.84 19.2459 21.7522 19.6744 21.5771C20.103 21.402 20.4923 21.1431 20.8194 20.8155C21.1466 20.488 21.405 20.0984 21.5796 19.6696C21.7542 19.2408 21.8414 18.7815 21.8361 18.3186C21.8308 17.8557 21.7331 17.3985 21.5488 16.9738C21.3645 16.5491 21.0972 16.1656 20.7626 15.8456C20.3027 15.38 19.7183 15.0568 19.0795 14.9146C18.4406 14.7725 17.7743 14.8174 17.1604 15.0441L5.18276 3.06646L30.1808 5.74801C31.0343 5.83354 31.8442 6.16681 32.5107 6.7068C33.1772 7.24678 33.6713 7.9699 33.932 8.78711L39.6854 26.247L26.2479 39.6846L8.78499 33.9312ZM43.672 26.4526C44.1948 25.9344 44.8593 25.5827 45.5818 25.442C46.3043 25.3012 47.0522 25.3777 47.7313 25.6618C48.4103 25.9458 48.9899 26.4247 49.397 27.0379C49.8041 27.6512 50.0203 28.3713 50.0184 29.1073C50.0178 29.5954 49.9204 30.0785 49.7317 30.5286C49.5429 30.9787 49.2667 31.3868 48.9189 31.7293L31.7242 48.9211C31.0156 49.6015 30.0713 49.9815 29.0888 49.9815C28.1064 49.9815 27.1621 49.6015 26.4535 48.9211C25.7642 48.2224 25.3778 47.2805 25.3778 46.2991C25.3778 45.3177 25.7642 44.3758 26.4535 43.6771L43.672 26.4526Z" fill="white"/>
</g>
</svg>
