<svg width="76" height="56" viewBox="0 0 76 56" fill="none" xmlns="http://www.w3.org/2000/svg">
<g id="Frame 7">
<path id="Vector" d="M73.5579 8.74391L57.8018 0.149131C57.6235 0.0516911 57.4237 0.00042273 57.2205 0H47.4814C47.1585 0 46.8489 0.128261 46.6206 0.356566C46.3923 0.584871 46.264 0.894519 46.264 1.21739C46.264 3.4775 45.3662 5.64503 43.768 7.24317C42.1699 8.84131 40.0024 9.73913 37.7423 9.73913C35.4821 9.73913 33.3146 8.84131 31.7165 7.24317C30.1183 5.64503 29.2205 3.4775 29.2205 1.21739C29.2205 0.894519 29.0923 0.584871 28.8639 0.356566C28.6356 0.128261 28.326 0 28.0031 0H18.264C18.0616 0.0018621 17.8628 0.0541643 17.6857 0.152174L1.9266 8.74391C1.08415 9.18408 0.450757 9.94052 0.165457 10.8472C-0.119843 11.7539 -0.0337429 12.7367 0.404859 13.58L6.27269 24.783C6.59499 25.3902 7.07738 25.8976 7.66754 26.25C8.2577 26.6025 8.93311 26.7867 9.62051 26.7826H17.0466V52.3478C17.0466 53.3164 17.4314 54.2454 18.1163 54.9303C18.8012 55.6152 19.7302 56 20.6988 56H54.7857C55.7543 56 56.6833 55.6152 57.3682 54.9303C58.0531 54.2454 58.4379 53.3164 58.4379 52.3478V26.7826H65.8427C66.5301 26.7867 67.2055 26.6025 67.7957 26.25C68.3858 25.8976 68.8682 25.3902 69.1905 24.783L75.0583 13.58C75.4986 12.7393 75.5878 11.7585 75.3066 10.8522C75.0254 9.94582 74.3967 9.18778 73.5579 8.74391ZM9.64182 24.3478C9.39497 24.3538 9.15117 24.2924 8.93666 24.1701C8.72214 24.0478 8.54504 23.8694 8.42443 23.6539L2.57182 12.4509C2.50111 12.3142 2.45848 12.1647 2.44643 12.0113C2.43438 11.8578 2.45316 11.7035 2.50166 11.5575C2.55016 11.4114 2.6274 11.2765 2.72883 11.1608C2.83025 11.045 2.95382 10.9507 3.09225 10.8835L17.0466 3.2687V24.3478H9.64182ZM56.0031 52.3478C56.0031 52.6707 55.8749 52.9803 55.6466 53.2086C55.4183 53.437 55.1086 53.5652 54.7857 53.5652H20.6988C20.3759 53.5652 20.0663 53.437 19.8379 53.2086C19.6096 52.9803 19.4814 52.6707 19.4814 52.3478V2.43478H26.8527C27.1503 5.11474 28.4258 7.59083 30.4349 9.38918C32.4441 11.1875 35.0458 12.1819 37.7423 12.1819C40.4387 12.1819 43.0404 11.1875 45.0496 9.38918C47.0587 7.59083 48.3342 5.11474 48.6318 2.43478H56.0031V52.3478ZM72.9127 12.4509L67.0479 23.6539C66.9273 23.8694 66.7502 24.0478 66.5357 24.1701C66.3212 24.2924 66.0774 24.3538 65.8305 24.3478H58.4379V3.2687L72.3923 10.8774C72.5315 10.9446 72.6558 11.0391 72.7577 11.1554C72.8597 11.2716 72.9372 11.4071 72.9858 11.5539C73.0343 11.7007 73.0529 11.8557 73.0403 12.0098C73.0278 12.1639 72.9844 12.3139 72.9127 12.4509Z" fill="white"/>
</g>
</svg>
